<svg width="14" height="14" xmlns="http://www.w3.org/2000/svg">
 <!-- Generator: Sketch 3.8.3 (29802) - http://www.bohemiancoding.com/sketch -->
 <title>Icon</title>
 <desc>Created with Sketch.</desc>

 <g>
  <title>background</title>
  <rect fill="none" id="canvas_background" height="402" width="582" y="-1" x="-1"/>
 </g>
 <g>
  <title>Layer 1</title>
  <g fill-rule="evenodd" fill="none" id="Page-1">
   <g fill="#BDC7CF" id="Ecommerce">
    <g id="Cart-#1-Copy">
     <g id="#1">
      <path id="Icon" d="m12.38803,0.3338l-4.93121,4.9312c-0.20222,0.20171 -0.5289,0.20171 -0.7306,0l-5.11373,-5.11372c-0.2017,-0.20171 -0.5289,-0.20171 -0.7306,0l-0.73061,0.73061c-0.20171,0.2017 -0.20171,0.52838 0,0.7306l5.11372,5.11373c0.20171,0.2017 0.20171,0.52838 0,0.7306l-4.9312,4.93069c-0.2017,0.2017 -0.2017,0.5289 0,0.7306l0.73061,0.73061c0.20171,0.20171 0.5289,0.20171 0.7306,0l4.93121,-4.9312c0.2017,-0.20171 0.52838,-0.20171 0.7306,0l4.74817,4.74868c0.2017,0.20171 0.52889,0.20171 0.7306,0l0.73061,-0.73061c0.20171,-0.20171 0.20171,-0.5289 0,-0.7306l-4.74868,-4.74817c-0.20171,-0.20222 -0.20171,-0.5289 0,-0.7306l4.9312,-4.93121c0.20171,-0.2017 0.20171,-0.52889 0,-0.7306l-0.73061,-0.73061c-0.2017,-0.20171 -0.52838,-0.20171 -0.73008,0"/>
     </g>
    </g>
   </g>
  </g>
 </g>
</svg>